PathFileType	4	(X/Y/Z)	56_2_32_p1_0-343_filt_butterworth.trc
DataRate	CameraRate	NumFrames	NumMarkers	Units	OrigDataRate	OrigDataStartFrame	OrigNumFrames
59.0	59.0	5	27	m	59.0	257	343
Frame#	Time	RHip			RKnee			RAnkle			RBigToe			RSmallToe			RHeel			LHip			LKnee			LAnkle			LBigToe			LSmallToe			LHeel			Neck			Head			Nose			RShoulder			RElbow			RWrist			RThumb			RIndex			RPinky			LShoulder			LElbow			LWrist			LThumb			LIndex			LPinky			
		X1	Y1	Z1	X2	Y2	Z2	X3	Y3	Z3	X4	Y4	Z4	X5	Y5	Z5	X6	Y6	Z6	X7	Y7	Z7	X8	Y8	Z8	X9	Y9	Z9	X10	Y10	Z10	X11	Y11	Z11	X12	Y12	Z12	X13	Y13	Z13	X14	Y14	Z14	X15	Y15	Z15	X16	Y16	Z16	X17	Y17	Z17	X18	Y18	Z18	X19	Y19	Z19	X20	Y20	Z20	X21	Y21	Z21	X22	Y22	Z22	X23	Y23	Z23	X24	Y24	Z24	X25	Y25	Z25	X26	Y26	Z26	X27	Y27	Z27	
257	4.3559322033898304	0.4749257663241493	0.6626390418924664	0.338720897570767	0.4980224280374111	0.8462965949673052	0.6800274050172169	0.5071586913585248	1.0743548590524739	1.060112100051836	0.424313224557058	0.8933657118173388	1.144504156142205	0.5024812045561143	0.9095550151752386	1.156540431080889	0.50798231221755	1.1592329836007305	1.0898289272727006	0.2877138876179383	0.7750184560951837	0.3290888824127131	0.3132875372060417	0.9434404180076141	0.6600949481256285	0.32506115240766875	1.0873700990699362	1.001664115946566	0.25597668851239996	0.9173628072936517	1.1160149086611355	0.21996029925115335	0.9823094173227686	1.1037769781490876	0.3553109337077076	1.1479725792381514	1.0431944124099684	0.3513739349148109	0.531780712251023	-0.221333740757753	0.3349563232955125	0.4113625964160187	-0.43263323824303257	0.3068023258517745	0.372621031296675	-0.3040146058753278	0.4951968273750362	0.49717428169593825	-0.09954295998749042	0.5846492239780232	0.6333345436835678	0.1415759035183905	0.6262933544616068	0.6429754329108835	0.3892745281879032	0.633426350073627	0.770744901773624	0.49647857455344185	0.6682724967109807	0.7854050375235728	0.5093676009450603	0.6845486555451166	0.7988076896962153	0.5210155775272904	0.18468586885173005	0.5933086168687267	-0.1354404307117974	0.17892800134235054	0.7891909734402945	0.103772236051381	0.16124568070228576	0.8689222179206074	0.32877862690974946	0.19072067281297048	0.9006185626642397	0.4290302303840789	0.15847341404783136	0.9017584476042964	0.44856174057707743	0.15595697159122404	0.95488977551507	0.4386271549060986
258	4.372881355932203	0.4762689251712875	0.6662209660414201	0.33964277988459546	0.49821028912479726	0.8466688428992353	0.6803294470498914	0.5085004549639691	1.0829329741536362	1.0617033595690062	0.4244242567297051	0.8935330959194835	1.144540648919058	0.5036798084490435	0.9114763064006473	1.1565376897396213	0.5071591023098466	1.1579892522423425	1.089422249059579	0.2878381747621295	0.7781367847660714	0.3290057996570525	0.3133599254479507	0.9434902524133262	0.6599924516151165	0.3250904770882085	1.0872241780057397	1.001330212967468	0.2559611304121088	0.9174366218644654	1.1159795773672732	0.21994483625614059	0.9824504081283538	1.1036353071534586	0.35549659736416417	1.1480282244676203	1.0417707026530756	0.3520133960041803	0.5325818918842713	-0.22197877533977772	0.33678347086821986	0.4138233569660353	-0.43437720644102495	0.308697934846763	0.3752485544980338	-0.3062874512131499	0.4972445849072895	0.4996598262162132	-0.09985280261067728	0.5844938079784242	0.6281244652514645	0.1431315343213439	0.6240746039973263	0.6387283060670909	0.3920800724324906	0.6275638773637783	0.7645627950526391	0.4978637833637433	0.6553537662793221	0.7628397779368568	0.5141940519785508	0.6805518063866902	0.7863783882923173	0.5230482775839875	0.18450852865289752	0.5923367760993434	-0.1353491864654786	0.1715923488435419	0.7790093444032204	0.10564232974772869	0.1566871481948529	0.8627678458266249	0.3331293233208725	0.18655381218026196	0.8933221930276669	0.43282867500533423	0.1571525704578851	0.902202246863744	0.45423708673890256	0.15060266082026097	0.966044736338913	0.44402372374003574
259	4.389830508474576	0.4787735483317023	0.6701046587520713	0.34098208997467294	0.49852654346291053	0.8472447222387501	0.6809137677766909	0.5095368248259905	1.0896559759669404	1.063127796968908	0.4247117324476955	0.8939581212078966	1.1446374632016048	0.5062703946088629	0.9157451301954675	1.156362336920286	0.5049257190715365	1.1545105462398777	1.0887821572095842	0.28786121141706056	0.7784452996668142	0.32917395664646065	0.3135214200335472	0.9438580307141603	0.6601388087828979	0.32511339066573874	1.0870817770927048	1.0009650110194745	0.25599703473871005	0.9177749832230863	1.1160874333604447	0.21991240575676319	0.9827313626752765	1.1031452080830328	0.35564333859870134	1.1479681554264127	1.0402703241038909	0.35191306407139117	0.5325739858899439	-0.22204256788386365	0.3375376468410256	0.41471935606095556	-0.4354448334146922	0.3117739395095663	0.37947839328862093	-0.3086875136302927	0.49997554624953244	0.5029705218656939	-0.10036583645562652	0.5845659338892057	0.6187996820128424	0.14374361041619815	0.6213433853785348	0.6343483232242212	0.3928349688824232	0.6175674424968738	0.7517024316864918	0.4978116319738014	0.6360510525218392	0.7290467436142358	0.5177880708039714	0.6703458234612968	0.7632026022837871	0.522682720400643	0.18433412714959357	0.5914808943393947	-0.13554765352221745	0.1670021339997826	0.7738719458960741	0.10648939940818333	0.15286561891765515	0.8589342781524297	0.33807645895086225	0.18307922980758215	0.8896700766198966	0.43687850909565207	0.15596675984265457	0.9029924265751024	0.459882492643704	0.14171233498194521	0.9638752177882607	0.44924499270325574
260	4.406779661016949	0.4817134498364726	0.6743289234168204	0.3421262993266759	0.49883900940121245	0.8478126639649302	0.6815486390327232	0.5095386274342553	1.0917683680867036	1.0642043336923102	0.4251187749475585	0.8945693577097691	1.1447727877700937	0.5086481182802717	0.9196934395837973	1.155612326737305	0.5020545458061382	1.1501004845561495	1.0889532269374607	0.28780969277667207	0.7779220985181958	0.32998091535263263	0.31372188298957127	0.9446616883083196	0.66106360776383	0.32512628001321947	1.0872659124253414	1.0013170707565497	0.256134696071796	0.9182949759801649	1.1162481378888678	0.21994890372559234	0.9829699310203003	1.1023845792948554	0.35556714689288677	1.148145616394738	1.0404489350924202	0.3517131242802474	0.5323839057131283	-0.2219439109993421	0.33797016229511595	0.4146574063843265	-0.4363930485545645	0.31520792165092176	0.3841526865194041	-0.31092939181646184	0.5020643632097923	0.5054586830399311	-0.10113792869124721	0.5848190726314197	0.6086627472151808	0.143486294898738	0.6192452814833092	0.6313828858319807	0.39305492174068085	0.606886643861966	0.7348192777829489	0.49888182573236545	0.6174007751712043	0.696522119882572	0.5201151023614767	0.6572374806979769	0.7372032204419346	0.5218567807105556	0.18423099937818757	0.5911831175001254	-0.1363901621927945	0.16430369566898298	0.7724533326116115	0.10694790262917366	0.14908942773138475	0.8565153251661057	0.3423762735358965	0.1786095662890481	0.8883529507252327	0.4406724919931758	0.1539557408497529	0.903120443994147	0.46471789485858783	0.13169436379458607	0.9467150707144265	0.45327026413285043
261	4.423728813559322	0.4837623209104788	0.6773374766705739	0.34302743129088564	0.49908716996530417	0.8482943891884082	0.6821934738715801	0.5080602138658139	1.0890684604843388	1.065311456479086	0.4252768871540836	0.8948011455920346	1.1447618646251039	0.5079428156626322	0.9186924754415617	1.1540267918511908	0.4999874679678162	1.1469862215179825	1.0906173352261004	0.2876669116033663	0.7776678334017877	0.3316217858178624	0.31390023390192257	0.9459707827465167	0.6630414181705304	0.3251380753670666	1.0881645951097862	1.0034815090061333	0.25642600546868527	0.9182266747655322	1.1159589084832815	0.22038193695326624	0.982938198335271	1.1020880504082493	0.3552022441087226	1.1484777009260845	1.0432461569193519	0.35163594375621704	0.5322127807812672	-0.2218649302511972	0.3388933018148537	0.41446529705644497	-0.43745554957712035	0.31803227730970046	0.38797234779225465	-0.31260372555139426	0.5029296428233891	0.5063594435668506	-0.102291760078278	0.5849711631924082	0.6019998842560175	0.14286393569659303	0.6183818772132796	0.6304838438725177	0.3935146948685037	0.598853920206817	0.7194521307326617	0.5029049280962331	0.604742718621747	0.6743042234593868	0.5218782097827002	0.6451297105350008	0.7155514029687527	0.5211361919150546	0.18422247064963237	0.5924142611103678	-0.13777989892060083	0.1623384599059142	0.7724960601483842	0.1074605646344001	0.14502631976344954	0.8537088634657202	0.345141889749016	0.17238213245808975	0.8873238889039968	0.4443575777189541	0.150608121888906	0.9010580875115088	0.46871918382963274	0.12200178641578946	0.9175980226816977	0.45568902428755514
